# File created by Blade
# Date/Time:  Thu Jan 22 16:16:06 2015
# Frame Rate: 120.000 fps
#------------------------------------------------------
:FULLY-SPECIFIED
:DEGREES
815
root 1.686812 34.572702 -6.898408 50.263155 -0.951345 4.414233
RightUpLeg -52.457747 -24.656865 -11.703773
RightLeg -6.647125 -0.000000 0.000000
RightFoot 1.374837 -26.462957 32.889341
RightToeBase 14.500109 -0.000000 -0.000000
LeftUpLeg -55.185430 15.049376 8.897326
LeftLeg -2.543300 -0.000000 0.000000
LeftFoot 3.843186 16.650786 -36.040404
LeftToeBase 11.142999 -0.000000 -0.000000
Spine 80.442150 -4.914307 -7.971489
RightShoulder 18.460122 16.448998 -50.899054
RightArm 48.462081 34.577796 39.178129
RightForeArm -26.456992 -0.000000 37.443805
RightHand 10.295187 -0.000000 -23.169459
RightHandThumb1 -24.326973 -0.000000 -32.862282
LeftShoulder 11.553322 9.723143 54.132983
LeftArm 70.747601 -46.288712 -44.089922
LeftForeArm 60.840703 -0.000000 22.341657
LeftHand -23.602514 -0.000000 26.062922
LeftHandThumb1 -26.253704 0.000000 33.147579
Head -11.125818 12.534710 -5.078000
816
root 1.677507 34.567398 -6.892163 49.956571 -0.823419 4.332942
RightUpLeg -51.961599 -24.628935 -11.658718
RightLeg -6.944056 -0.000000 0.000000
RightFoot 1.503923 -26.487044 32.856298
RightToeBase 14.472694 -0.000000 -0.000000
LeftUpLeg -54.703940 14.941917 9.234116
LeftLeg -2.846963 -0.000000 0.000000
LeftFoot 3.893479 16.793968 -36.090165
LeftToeBase 11.162951 -0.000000 -0.000000
Spine 80.468754 -4.979023 -8.089372
RightShoulder 18.449198 16.124456 -50.793047
RightArm 49.386010 34.520945 39.660849
RightForeArm -26.427682 0.000000 37.495869
RightHand 10.555059 -0.000000 -23.691381
RightHandThumb1 -24.326973 -0.000000 -32.862282
LeftShoulder 11.630058 10.073997 54.097086
LeftArm 70.705829 -46.157498 -44.259807
LeftForeArm 60.495463 -0.000000 22.698075
LeftHand -23.630662 -0.000000 27.122978
LeftHandThumb1 -26.253704 0.000000 33.147579
Head -10.870729 12.798227 -5.319099
817
root 1.666644 34.562474 -6.883871 49.582932 -0.692288 4.256285
RightUpLeg -51.392230 -24.598870 -11.630147
RightLeg -7.250973 -0.000000 0.000000
RightFoot 1.668570 -26.514604 32.763592
RightToeBase 14.496230 -0.000000 -0.000000
LeftUpLeg -54.174816 14.873842 9.490435
LeftLeg -3.156136 -0.000000 0.000000
LeftFoot 4.017973 16.869748 -36.065280
LeftToeBase 11.175222 -0.000000 -0.000000
Spine 80.531483 -5.055784 -8.177638
RightShoulder 18.492078 15.607010 -50.720851
RightArm 50.364466 34.607644 40.064362
RightForeArm -26.234135 -0.000000 37.490033
RightHand 10.918796 -0.000000 -24.134097
RightHandThumb1 -24.326973 -0.000000 -32.862282
LeftShoulder 11.890881 10.175933 54.216912
LeftArm 70.185596 -45.962852 -44.468164
LeftForeArm 60.329548 0.000000 23.340401
LeftHand -23.941572 -0.000000 27.936074
LeftHandThumb1 -26.253704 0.000000 33.147579
Head -10.484803 12.991006 -5.620182
818
root 1.655420 34.557532 -6.876861 49.272847 -0.560335 4.185218
RightUpLeg -50.872117 -24.564165 -11.617638
RightLeg -7.561257 -0.000000 0.000000
RightFoot 1.770139 -26.562474 32.790271
RightToeBase 14.448805 -0.000000 -0.000000
LeftUpLeg -53.721159 14.831234 9.687397
LeftLeg -3.473527 -0.000000 0.000000
LeftFoot 4.184236 16.933789 -35.977302
LeftToeBase 11.125396 -0.000000 -0.000000
Spine 80.505322 -5.089915 -8.239920
RightShoulder 18.558929 15.335443 -50.567048
RightArm 51.060860 34.479688 40.529421
RightForeArm -26.161582 -0.000000 37.650317
RightHand 11.106817 -0.000000 -24.643215
RightHandThumb1 -24.326973 -0.000000 -32.862282
LeftShoulder 12.042376 10.292237 54.181083
LeftArm 70.097459 -45.678736 -44.706510
LeftForeArm 60.262420 -0.000000 23.724101
LeftHand -24.000251 -0.000000 28.810891
LeftHandThumb1 -26.253704 0.000000 33.147579
Head -10.088870 13.130927 -5.811376
819
root 1.641455 34.552303 -6.868503 48.945921 -0.437761 4.108056
RightUpLeg -50.348224 -24.499524 -11.624350
RightLeg -7.835330 -0.000000 0.000000
RightFoot 1.834244 -26.616369 32.749442
RightToeBase 14.419283 -0.000000 -0.000000
LeftUpLeg -53.258322 14.840199 9.817732
LeftLeg -3.804963 -0.000000 0.000000
LeftFoot 4.376360 16.963317 -35.895470
LeftToeBase 11.118312 -0.000000 -0.000000
Spine 80.504596 -5.066445 -8.308234
RightShoulder 18.593115 15.228737 -50.402533
RightArm 51.583051 34.209625 41.053495
RightForeArm -26.045744 -0.000000 37.925347
RightHand 11.023564 -0.000000 -24.926498
RightHandThumb1 -24.326973 -0.000000 -32.862282
LeftShoulder 12.168936 10.265107 54.134288
LeftArm 70.004097 -45.308294 -44.922473
LeftForeArm 59.846724 0.000000 24.104015
LeftHand -24.131309 0.000000 31.639645
LeftHandThumb1 -26.253704 0.000000 33.147579
Head -9.781525 13.334952 -5.964704
820
root 1.627152 34.547800 -6.858229 48.593078 -0.294707 4.047316
RightUpLeg -49.787591 -24.449010 -11.650112
RightLeg -8.105862 -0.000000 0.000000
RightFoot 1.928919 -26.692151 32.671224
RightToeBase 14.438589 -0.000000 -0.000000
LeftUpLeg -52.779028 14.785999 9.997990
LeftLeg -4.104739 -0.000000 0.000000
LeftFoot 4.539541 17.036689 -35.783295
LeftToeBase 11.154875 -0.000000 -0.000000
Spine 80.529123 -5.089375 -8.374522
RightShoulder 18.626159 15.162234 -50.366390
RightArm 52.020152 33.928565 41.738415
RightForeArm -25.899167 -0.000000 38.324502
RightHand 11.189715 0.000000 -25.106489
RightHandThumb1 -24.326973 -0.000000 -32.862282
LeftShoulder 12.263212 10.236219 54.006526
LeftArm 69.910693 -44.908094 -45.157097
LeftForeArm 59.834838 -0.000000 24.533873
LeftHand -24.204225 0.000000 32.070601
LeftHandThumb1 -26.253704 0.000000 33.147579
Head -9.499205 13.522217 -6.215776
821
root 1.612170 34.543216 -6.851052 48.273058 -0.167436 3.991094
RightUpLeg -49.268440 -24.374963 -11.704970
RightLeg -8.355787 -0.000000 0.000000
RightFoot 1.986158 -26.789804 32.606936
RightToeBase 14.449074 -0.000000 -0.000000
LeftUpLeg -52.327773 14.728486 10.181081
LeftLeg -4.405235 -0.000000 0.000000
LeftFoot 4.681914 17.136632 -35.727300
LeftToeBase 11.151148 -0.000000 -0.000000
Spine 80.485275 -5.127882 -8.499162
RightShoulder 18.719520 15.199689 -50.302519
RightArm 52.420688 33.560686 42.417549
RightForeArm -25.747465 0.000000 38.642788
RightHand 11.557546 0.000000 -25.173892
RightHandThumb1 -24.326973 -0.000000 -32.862282
LeftShoulder 12.414269 10.322035 53.874378
LeftArm 69.902027 -44.616965 -45.594189
LeftForeArm 59.986552 -0.000000 25.069423
LeftHand -24.134614 -0.000000 32.533463
LeftHandThumb1 -26.253704 0.000000 33.147579
Head -9.206478 13.776212 -6.576064
822
root 1.594907 34.539315 -6.845176 47.932951 -0.008021 3.905253
RightUpLeg -48.733342 -24.273959 -11.739944
RightLeg -8.582166 -0.000000 0.000000
RightFoot 2.003321 -26.932920 32.566644
RightToeBase 14.478717 -0.000000 -0.000000
LeftUpLeg -51.907014 14.696961 10.384045
LeftLeg -4.630399 -0.000000 0.000000
LeftFoot 4.836695 17.171015 -35.664273
LeftToeBase 11.142572 -0.000000 -0.000000
Spine 80.487922 -5.161658 -8.542439
RightShoulder 18.719520 15.230070 -50.305613
RightArm 52.762654 33.134534 43.083913
RightForeArm -25.525530 -0.000000 39.085654
RightHand 11.434590 -0.000000 -25.366057
RightHandThumb1 -24.326973 -0.000000 -32.862282
LeftShoulder 12.432551 10.321862 53.654211
LeftArm 69.839434 -44.154125 -45.841042
LeftForeArm 59.527870 -0.000000 25.639911
LeftHand -23.882025 -0.000000 31.821446
LeftHandThumb1 -26.253704 0.000000 33.147579
Head -9.101111 14.000755 -6.988331
823
root 1.575080 34.535277 -6.842451 47.671356 0.157194 3.792018
RightUpLeg -48.322976 -24.179700 -11.697960
RightLeg -8.757948 -0.000000 0.000000
RightFoot 2.030652 -27.030274 32.495443
RightToeBase 14.415506 -0.000000 -0.000000
LeftUpLeg -51.550853 14.643114 10.677037
LeftLeg -4.842722 -0.000000 0.000000
LeftFoot 4.940631 17.251291 -35.669223
LeftToeBase 11.132083 -0.000000 -0.000000
Spine 80.396349 -5.121001 -8.495342
RightShoulder 18.703794 15.552571 -50.317150
RightArm 52.659966 32.491089 43.924633
RightForeArm -25.402921 -0.000000 39.847046
RightHand 11.212814 0.000000 -25.399664
RightHandThumb1 -24.326973 -0.000000 -32.862282
LeftShoulder 12.304393 10.177490 53.306949
LeftArm 70.191789 -43.491206 -46.176917
LeftForeArm 59.344351 -0.000000 25.928222
LeftHand -23.780678 -0.000000 32.033326
LeftHandThumb1 -26.253704 0.000000 33.147579
Head -9.033916 14.223203 -7.266942
